<?xml version="1.0" encoding="UTF-8" standalone="no"?>
<svg xmlns="http://www.w3.org/2000/svg" height="33px" width="34px" version="1.1" xmlns:xlink="http://www.w3.org/1999/xlink" viewBox="0 0 34 33">
 <desc>Created with Lunacy</desc>
 <g id="gmail">
  <path id="Path" fill="#5630FF" d="m30 5.2643v13.236c0 0.829-0.672 1.5-1.5 1.5h-24c-0.8284 0-1.5-0.671-1.5-1.5v-13.236l4.2526-2.4662c0.7166-0.4156 0.9606-1.3335 0.545-2.0501-0.4157-0.71664-1.3336-0.96064-2.0502-0.545l-5 2.9c-0.46263 0.2683-0.7474 0.7627-0.7474 1.2975v14.1c-2.4425e-15 2.486 2.0147 4.5 4.5 4.5h24c2.485 0 4.5-2.014 4.5-4.5v-14.1c0-0.5346-0.285-1.029-0.747-1.2973l-5-2.9c-0.717-0.41564-1.635-0.17164-2.051 0.54497-0.415 0.71663-0.171 1.6345 0.545 2.0501l4.253 2.4665z" transform="translate(.00027016 9.9998)"/>
  <path id="Path" fill="#9D86FF" d="m3 3h17v14.1c0 0.828 0.672 1.5 1.5 1.5s1.5-0.672 1.5-1.5v-15.6c0-0.82843-0.672-1.5-1.5-1.5h-20c-0.82843 0-1.5 0.67157-1.5 1.5v15.7c0 0.828 0.67157 1.5 1.5 1.5 0.8284 0 1.5-0.672 1.5-1.5v-14.2z" transform="translate(5.0003 2.3093e-14)"/>
  <path id="Path" fill="#5630FF" d="m0.76882 2.8098l28 15.639c0.723 0.404 1.637 0.145 2.041-0.578s0.145-1.637-0.578-2.041l-28-15.639c-0.7235-0.40427-1.6373-0.14544-2.0413 0.57782-0.40397 0.72328-0.14514 1.6371 0.57812 2.041z" transform="translate(-8.5265e-14 12.9)"/>
  <path id="Path" fill="#5630FF" d="m15.794 0.17677l-15 8c-0.73055 0.3898-1.0071 1.2984-0.61723 2.0292 0.38985 0.731 1.2984 1.008 2.0294 0.618l15-8.0002c0.731-0.3898 1.008-1.2984 0.618-2.0294-0.39-0.73095-1.299-1.0075-2.03-0.61763z" transform="translate(15 12.9)"/>
  <path id="Path" fill="#9D86FF" d="m1.5 3h10c0.828 0 1.5-0.6716 1.5-1.5 0-0.82843-0.672-1.5-1.5-1.5h-10c-0.82843 0-1.5 0.67157-1.5 1.5 0 0.8284 0.67157 1.5 1.5 1.5z" transform="translate(10 6)"/>
  <path id="Path" fill="#9D86FF" d="m1.5 3h10c0.828 0 1.5-0.6716 1.5-1.5 0-0.82843-0.672-1.5-1.5-1.5h-10c-0.82843 0-1.5 0.67157-1.5 1.5 0 0.8284 0.67157 1.5 1.5 1.5z" transform="translate(10 11)"/>
 </g>
</svg>
