<?xml version="1.0" encoding="UTF-8" standalone="no"?>
<svg xmlns="http://www.w3.org/2000/svg" height="30px" width="36px" version="1.1" xmlns:xlink="http://www.w3.org/1999/xlink" viewBox="0 0 36 30">
 <desc>Created with Lunacy</desc>
 <g id="link">
  <path id="Path" fill="#9D86FF" d="m5.3989 17.267c-1.4453-0.632-2.3989-2.062-2.3989-3.667v-6.6c0-2.2087 1.7913-4 4-4h14.3c2.209 0 4 1.7913 4 4v6.6c0 2.209-1.791 4-4 4h-4.11c-0.828 0-1.5 0.672-1.5 1.5s0.672 1.5 1.5 1.5h4.11c3.866 0 7-3.134 7-7v-6.6c0-3.8655-3.134-7-7-7h-14.3c-3.8655 0-7 3.1345-7 7v6.6c0 2.807 1.6688 5.31 4.1967 6.416 0.759 0.332 1.6434-0.015 1.9754-0.774s-0.0142-1.643-0.7732-1.975z"/>
  <path id="Path" fill="#5630FF" d="m23.978 4.029c0.837 0.7551 1.322 1.8224 1.322 2.971v6.6c0 2.209-1.791 4-4 4h-14.3c-2.2087 0-4-1.791-4-4v-6.6c0-2.2087 1.7913-4 4-4h3.353c0.828 0 1.5-0.6716 1.5-1.5 0-0.82843-0.672-1.5-1.5-1.5h-3.353c-3.8655 0-7 3.1345-7 7v6.6c0 3.866 3.1345 7 7 7h14.3c3.866 0 7-3.134 7-7v-6.6c0-2.0067-0.851-3.8802-2.312-5.1983-0.615-0.5549-1.564-0.5062-2.118 0.1088-0.556 0.6151-0.507 1.5636 0.108 2.1185z" transform="translate(7.7 8.8)"/>
 </g>
</svg>
