<?xml version="1.0" encoding="utf-8"?>
<svg width="133px" height="27px" viewBox="0 0 133 27" version="1.1" xmlns:xlink="http://www.w3.org/1999/xlink" xmlns="http://www.w3.org/2000/svg">
  <desc>Created with Lunacy</desc>
  <g id="Logo">
    <g id="respona_white" transform="translate(5.052696 0.8709677)">
      <path d="M9.07193 3.52629e-06C5.52677 -0.0031169 2.3052 2.06495 0.82637 5.2932C-0.65246 8.52146 -0.117064 12.3172 2.19671 15.0085C2.19671 15.0085 1.36595 13.3552 3.05611 11.6618C2.02221 9.21941 2.56229 6.39329 4.42354 4.50636C6.28479 2.61943 9.09889 2.04508 11.5485 3.05219C13.9981 4.05929 15.5985 6.44855 15.6005 9.10152C15.6005 12.0722 13.4205 14.7645 10.7134 15.5595C9.40997 15.9413 7.79715 16.0245 6.93202 15.3213C4.98117 13.7398 7.13541 12.3162 7.13541 12.3047L8.13232 13.714L13.6296 6.28295L4.23063 8.24619L5.55411 10.0774L10.9426 7.72668L6.07262 10.8093C5.92615 10.9054 5.78464 11.0088 5.64864 11.1193C4.93534 11.6933 3.47722 13.1285 4.10745 15.3959C4.92675 18.3379 8.86568 18.2231 9.08626 18.2231C14.0458 18.1349 18.0202 14.0815 18.0202 9.11156C18.0202 4.14164 14.0458 0.0882019 9.08626 3.52629e-06L9.07193 3.52629e-06Z" transform="translate(66.63573 0.3989591)" id="Path" fill="#00BCB0" stroke="none" />
      <path d="M10.4303 0.238668L10.3615 3.37009C9.71862 3.1383 9.0395 3.02359 8.35626 3.03141C6.79406 3.03141 5.62241 3.50212 4.8413 4.44356C4.03751 5.44971 3.62166 6.71192 3.66965 7.99978L3.66965 17.5663L0.286468 17.5663L0.286468 5.24149C0.291484 3.62593 0.195809 2.01163 0 0.408012L3.19412 0.408012L3.50064 3.50787C3.90312 2.43409 4.64181 1.51976 5.60617 0.901692C6.56213 0.29956 7.67121 -0.0133777 8.80029 0.0004385C9.35189 0.00541503 9.90025 0.0855598 10.4303 0.238668Z" transform="translate(0 0.2865849)" id="Path" fill="#221CB6" stroke="none" />
      <path d="M15.6286 9.05655L3.39934 9.05655C3.51202 13.0749 5.33491 15.084 8.86801 15.084C10.839 15.0847 12.749 14.3988 14.2708 13.1438L15.3221 15.5949C14.4608 16.3319 13.4589 16.8856 12.3772 17.2224C11.2231 17.605 10.015 17.7989 8.79926 17.7964C6.06063 17.7964 3.91117 17.01 2.35087 15.4371C0.790579 13.8642 0.00756683 11.7029 0.00183748 8.95322C-0.0289118 7.33787 0.326664 5.73861 1.03885 4.28909C1.6856 2.98075 2.69255 1.8852 3.94077 1.13183C5.22562 0.369374 6.69597 -0.0220225 8.18908 0.000956654C10.498 0.000956654 12.3123 0.750088 13.632 2.24835C14.9516 3.74661 15.6143 5.82275 15.6201 8.47676L15.6286 9.05655ZM5.0981 3.71217C4.28071 4.47757 3.75934 5.57782 3.53398 7.01294L12.6064 7.01294C12.4689 5.5606 12.0268 4.4546 11.2801 3.69495C10.5333 2.93529 9.52593 2.5526 8.25784 2.54685C7.0922 2.50116 5.956 2.92019 5.0981 3.71217L5.0981 3.71217Z" transform="translate(11.68604 0.2860668)" id="Shape" fill="#221CB6" stroke="none" />
      <path d="M0 15.6258L1.01982 13.1402C2.78362 14.4921 4.94975 15.2109 7.17028 15.1809C8.34671 15.1809 9.24144 14.9829 9.85449 14.5868C10.4419 14.2328 10.7925 13.5884 10.7712 12.902C10.7945 12.3516 10.5617 11.8215 10.141 11.4669C9.72271 11.1138 9.01513 10.8153 8.01823 10.5656L5.15355 9.88249C3.65819 9.56676 2.51996 9.00515 1.73886 8.19766C0.956605 7.3876 0.537651 6.2931 0.578665 5.16669C0.549643 3.6946 1.24069 2.30126 2.42925 1.43539C3.66297 0.478641 5.29965 0.000268894 7.3393 0.000268894C8.52458 -0.00825381 9.70263 0.18588 10.8227 0.574316C11.8575 0.922812 12.8106 1.47845 13.6244 2.20748L12.5702 4.62422C10.9163 3.30774 9.17269 2.6495 7.3393 2.6495C6.23067 2.6495 5.3684 2.85902 4.76109 3.28095C4.16915 3.66243 3.82015 4.32693 3.84153 5.03179C3.81721 5.57053 4.02603 6.09359 4.41447 6.46691C4.94299 6.90481 5.57383 7.20109 6.24786 7.32798L9.17269 8.03693C10.8056 8.39857 12.0116 8.97262 12.7908 9.75907C13.584 10.5689 14.0088 11.6706 13.9653 12.8044C14.009 14.2607 13.3108 15.6394 12.1118 16.4639C10.8781 17.3518 9.19847 17.7957 7.07289 17.7957C4.07834 17.7957 1.72072 17.0724 0 15.6258Z" transform="translate(30.1679 0.2867545)" id="Path" fill="#221CB6" stroke="none" />
      <path d="M13.2835 1.12457C14.4628 1.90105 15.3992 2.99549 15.9849 4.28183C16.6536 5.756 16.9844 7.36144 16.9532 8.9804C16.9881 10.5812 16.663 12.1695 16.0021 13.6273C15.4215 14.8911 14.4895 15.9604 13.3179 16.7071C12.1241 17.4447 10.744 17.8233 9.34171 17.7978C8.14282 17.8238 6.95789 17.5359 5.9041 16.9625C4.92348 16.4225 4.13838 15.5857 3.66106 14.5716L3.66106 24.9188L0.272144 24.9188L0.272144 5.24336C0.281913 3.6281 0.191022 2.0138 0 0.409883L3.19411 0.409883L3.53215 3.56714C3.95685 2.46729 4.73362 1.53962 5.74081 0.929396C6.83152 0.290403 8.07866 -0.0306867 9.34171 0.00230984C10.7372 -0.0203223 12.1084 0.37006 13.2835 1.12457ZM12.1634 13.4924C13.0228 12.4266 13.4525 10.9293 13.4525 9.00049C13.4525 7.0717 13.0228 5.54569 12.1634 4.42247C11.3002 3.3203 10.0999 2.77017 8.56252 2.77209C6.97549 2.77209 5.76373 3.30499 4.92724 4.37081C4.09076 5.43662 3.6687 6.95306 3.66106 8.92013C3.66106 10.8948 4.08503 12.4151 4.93297 13.4809C5.78092 14.5467 6.9879 15.0806 8.55392 15.0825C10.097 15.0825 11.3002 14.5525 12.1634 13.4924Z" transform="translate(47.90311 0.2847136)" id="Shape" fill="#221CB6" stroke="none" />
      <path d="M15.5495 6.8898L15.5495 17.5671L12.1119 17.5671L12.1119 7.0821C12.1119 5.58384 11.8254 4.49411 11.2524 3.8129C10.6795 3.1317 9.75327 2.79206 8.47371 2.79397C7.02419 2.79397 5.86399 3.24747 4.99313 4.15446C4.12227 5.06146 3.68588 6.27557 3.68397 7.79679L3.68397 17.5556L0.286468 17.5556L0.286468 5.24228C0.292921 3.62668 0.19724 2.01229 0 0.408806L3.19411 0.408806L3.51782 3.37089C4.02877 2.31253 4.85173 1.43687 5.87545 0.862303C6.9539 0.275023 8.16604 -0.021678 9.39327 0.00123311C13.4974 0.00123311 15.5495 2.29742 15.5495 6.8898Z" transform="translate(86.71947 0.2857904)" id="Path" fill="#221CB6" stroke="none" />
      <path d="M16.675 0.409606L16.675 17.5679L13.2775 17.5679L13.2775 14.6402C12.8 15.6376 12.0212 16.4591 11.0516 16.9881C9.99419 17.5502 8.81076 17.8319 7.61399 17.8061C6.20572 17.8362 4.81883 17.4574 3.62063 16.7154C2.4561 15.9653 1.53055 14.8965 0.953619 13.6356C0.292658 12.1778 -0.0323957 10.5896 0.00254644 8.98874C-0.0286917 7.36977 0.30215 5.76434 0.970807 4.29016C1.5565 3.00382 2.49291 1.90939 3.6722 1.13291C4.84391 0.376992 6.21192 -0.0163364 7.6054 0.00203276C8.80464 -0.0272773 9.99038 0.260824 11.043 0.837271C12.008 1.3847 12.788 2.20819 13.2832 3.20234L13.2832 0.409606L16.675 0.409606ZM12.0055 13.4663C12.8535 12.3871 13.2775 10.8716 13.2775 8.91985C13.2775 6.96809 12.8535 5.44782 12.0055 4.35905C11.1614 3.29132 9.95443 2.75841 8.38459 2.76033C6.81475 2.76224 5.60872 3.31237 4.7665 4.41071C3.89564 5.51097 3.46021 7.04176 3.46021 9.00309C3.46021 10.9644 3.89564 12.4608 4.7665 13.4921C5.64118 14.5599 6.85867 15.0937 8.41896 15.0937C9.97926 15.0937 11.1748 14.5513 12.0055 13.4663L12.0055 13.4663Z" transform="translate(106.1394 0.2849907)" id="Shape" fill="#221CB6" stroke="none" />
    </g>
  </g>
</svg>