<?xml version="1.0" encoding="UTF-8" standalone="no"?>
<svg xmlns="http://www.w3.org/2000/svg" height="33px" width="33px" version="1.1" xmlns:xlink="http://www.w3.org/1999/xlink" viewBox="0 0 33 33">
 <desc>Created with Lunacy</desc>
 <g id="Report">
  <path id="Path" fill="#9D86FF" d="m2.0773 3.6846c1.0536-0.439 2.2593-0.6846 3.4231-0.6846 4.7716 0 8.6996 3.9284 8.6996 8.7 0 0.828 0.672 1.5 1.5 1.5 0.829 0 1.5-0.672 1.5-1.5 0-6.4284-5.271-11.7-11.7-11.7-1.5631 0-3.1606 0.32541-4.5765 0.91538-0.76473 0.31862-1.1264 1.1968-0.80772 1.9615 0.31862 0.7647 1.1968 1.1263 1.9615 0.8077z" transform="translate(11 4.8)"/>
  <path id="Path" fill="#9D86FF" d="m3 5.5004c0-1.1638 0.2456-2.3695 0.6846-3.4231 0.3186-0.7647-0.043-1.6429-0.8077-1.9615-0.7647-0.31865-1.6429 0.04297-1.9615 0.80767-0.58999 1.4159-0.9154 3.0134-0.9154 4.5769 0 0.8284 0.67157 1.5 1.5 1.5 0.8284 0 1.5-0.6716 1.5-1.5z" transform="translate(4.8 11)"/>
  <path id="Path" fill="#5630FF" d="m8.0607 5.9393l-5.5-5.5c-0.5858-0.58575-1.5356-0.58575-2.1214 0.00004-0.58575 0.58576-0.58575 1.5356 0.00004 2.1214l5.5 5.5c0.5858 0.5857 1.5356 0.5857 2.1214 0 0.5857-0.5858 0.5857-1.5356 0-2.1214z" transform="translate(7.4 7.4)"/>
  <path id="Oval" fill="#5630FF" d="m16.5 33c9.113 0 16.5-7.387 16.5-16.5 0-9.1127-7.387-16.5-16.5-16.5-9.1127 0-16.5 7.3873-16.5 16.5 0 9.113 7.3873 16.5 16.5 16.5zm0-3c-7.4558 0-13.5-6.044-13.5-13.5 0-7.4558 6.0442-13.5 13.5-13.5 7.456 0 13.5 6.0442 13.5 13.5 0 7.456-6.044 13.5-13.5 13.5z"/>
  <path id="Oval" fill="#5630FF" d="m4.5 9c2.4853 0 4.5-2.0147 4.5-4.5s-2.0147-4.5-4.5-4.5-4.5 2.0147-4.5 4.5 2.0147 4.5 4.5 4.5zm0-3c-0.8284 0-1.5-0.6716-1.5-1.5s0.6716-1.5 1.5-1.5 1.5 0.6716 1.5 1.5-0.6716 1.5-1.5 1.5z" transform="translate(12 12)"/>
 </g>
</svg>
