<?xml version="1.0" encoding="UTF-8" standalone="no"?>
<svg xmlns="http://www.w3.org/2000/svg" height="29px" width="29px" version="1.1" xmlns:xlink="http://www.w3.org/1999/xlink" viewBox="0 0 29 29">
 <desc>Created with Lunacy</desc>
 <g id="Upload">
  <path id="Path" fill="#9D86FF" d="m3 11.67v-10.17c0-0.82843-0.6716-1.5-1.5-1.5-0.82843 0-1.5 0.67157-1.5 1.5v10.17c0 0.829 0.67157 1.5 1.5 1.5 0.8284 0 1.5-0.671 1.5-1.5z" transform="translate(12.656 7.5711)"/>
  <path id="Path" fill="#9D86FF" d="m7.4062 3.6213l4.8458 4.8456c0.586 0.5858 1.535 0.5858 2.121 0s0.586-1.5355 0-2.1213l-5.9061-5.9063c-0.5858-0.58575-1.5355-0.58575-2.1213 0.00004l-5.9063 5.9063c-0.58575 0.5858-0.58575 1.5355 0.00004 2.1213 0.58576 0.5858 1.5356 0.5858 2.1214 0l4.8455-4.8456z" transform="translate(6.75 7.5711)"/>
  <path id="Path" fill="#5630FF" d="m3 3h1.875c0.8284 0 1.5-0.6716 1.5-1.5 0-0.82843-0.6716-1.5-1.5-1.5h-3.375c-0.82843 0-1.5 0.67157-1.5 1.5v3.375c0 0.8284 0.67157 1.5 1.5 1.5 0.8284 0 1.5-0.6716 1.5-1.5v-1.875z"/>
  <path id="Path" fill="#5630FF" d="m1.5 3h5.0625c0.8284 0 1.5-0.6716 1.5-1.5 0-0.82843-0.6716-1.5-1.5-1.5h-5.0625c-0.82843 0-1.5 0.67157-1.5 1.5 0 0.8284 0.67157 1.5 1.5 1.5z" transform="translate(10.125)"/>
  <path id="Path" fill="#5630FF" d="m3.375 3v1.875c0 0.8284 0.6716 1.5 1.5 1.5s1.5-0.6716 1.5-1.5v-3.375c0-0.82843-0.6716-1.5-1.5-1.5h-3.375c-0.82843 0-1.5 0.67157-1.5 1.5 0 0.8284 0.67157 1.5 1.5 1.5h1.875z" transform="translate(21.938)"/>
  <path id="Path" fill="#5630FF" d="m3.375 3.375h-1.875c-0.82843 0-1.5 0.6716-1.5 1.5s0.67157 1.5 1.5 1.5h3.375c0.8284 0 1.5-0.6716 1.5-1.5v-3.375c0-0.82843-0.6716-1.5-1.5-1.5s-1.5 0.67157-1.5 1.5v1.875z" transform="translate(21.938 21.938)"/>
  <path id="Path" fill="#5630FF" d="m6.5625 0h-5.0625c-0.82843 0-1.5 0.67157-1.5 1.5 0 0.8284 0.67157 1.5 1.5 1.5h5.0625c0.8284 0 1.5-0.6716 1.5-1.5 0-0.82843-0.6716-1.5-1.5-1.5z" transform="translate(10.125 25.312)"/>
  <path id="Path" fill="#5630FF" d="m3 3.375v-1.875c0-0.82843-0.6716-1.5-1.5-1.5-0.82843 0-1.5 0.67157-1.5 1.5v3.375c0 0.8284 0.67157 1.5 1.5 1.5h3.375c0.8284 0 1.5-0.6716 1.5-1.5s-0.6716-1.5-1.5-1.5h-1.875z" transform="translate(0 21.938)"/>
  <path id="Path" fill="#5630FF" d="m0 1.5v5.0625c0 0.8284 0.67157 1.5 1.5 1.5 0.8284 0 1.5-0.6716 1.5-1.5v-5.0625c0-0.82843-0.6716-1.5-1.5-1.5-0.82843 0-1.5 0.67157-1.5 1.5z" transform="translate(0 10.125)"/>
  <path id="Path" fill="#5630FF" d="m0 1.5v5.0625c0 0.8284 0.67157 1.5 1.5 1.5 0.8284 0 1.5-0.6716 1.5-1.5v-5.0625c0-0.82843-0.6716-1.5-1.5-1.5-0.82843 0-1.5 0.67157-1.5 1.5z" transform="translate(25.312 10.125)"/>
 </g>
</svg>
