<?xml version="1.0" encoding="UTF-8" standalone="no"?>
<svg xmlns="http://www.w3.org/2000/svg" height="30px" width="31px" version="1.1" xmlns:xlink="http://www.w3.org/1999/xlink" viewBox="0 0 31 30">
 <desc>Created with Lunacy</desc>
 <g id="User">
  <path id="Path" fill="#9D86FF" d="m6.6813 12.31h10.647c0.828 0 1.5-0.671 1.5-1.5v-9.31c0-0.82843-0.672-1.5-1.5-1.5h-15.828c-0.82843 0-1.5 0.67157-1.5 1.5v13.034c0 1.258 1.4549 1.958 2.437 1.172l4.2443-3.396zm9.1467-9.31v6.3103h-9.6728c-0.3406 0-0.6711 0.116-0.9371 0.3287l-2.2181 1.775v-8.414h12.828z" transform="translate(12.103 -9.5923e-14)"/>
  <path id="Oval" fill="#5630FF" d="m4.2931 8.5862c2.371 0 4.2931-1.9221 4.2931-4.2931s-1.9221-4.2931-4.2931-4.2931-4.2931 1.9221-4.2931 4.2931 1.9221 4.2931 4.2931 4.2931zm0-3c-0.7142 0-1.2931-0.5789-1.2931-1.2931s0.5789-1.2931 1.2931-1.2931 1.2931 0.5789 1.2931 1.2931-0.5789 1.2931-1.2931 1.2931z" transform="translate(19.552 13.034)"/>
  <path id="Oval" fill="#5630FF" d="m4.2931 8.5862c2.371 0 4.2931-1.9221 4.2931-4.2931s-1.9221-4.2931-4.2931-4.2931-4.2931 1.9221-4.2931 4.2931 1.9221 4.2931 4.2931 4.2931zm0-3c-0.7142 0-1.2931-0.5789-1.2931-1.2931s0.5789-1.2931 1.2931-1.2931 1.2931 0.5789 1.2931 1.2931-0.5789 1.2931-1.2931 1.2931z" transform="translate(2.7931 13.034)"/>
  <path id="Path" fill="#5630FF" d="m14.172 7.0862v-2.7773c0-1.1909-0.626-2.2894-1.65-2.8965-1.467-0.86696-3.2871-1.4124-5.4358-1.4124-2.1744 0-3.9983 0.54458-5.449 1.4116-1.0171 0.6076-1.6372 1.7028-1.6372 2.888v2.7866c0 0.8284 0.67157 1.5 1.5 1.5h11.172c0.829 0 1.5-0.6716 1.5-1.5zm-11.172-1.5v-1.2866c0-0.1304 0.066-0.2469 0.1761-0.3127 1.0027-0.5993 2.3008-0.9869 3.9101-0.9869 1.5845 0 2.885 0.3898 3.9078 0.9943 0.112 0.066 0.178 0.1834 0.178 0.3146v1.2773h-8.172z" transform="translate(8.1446e-13 21.414)"/>
  <path id="Path" fill="#5630FF" d="m14.172 7.0862v-2.7773c0-1.1909-0.626-2.2894-1.65-2.8965-1.467-0.86696-3.2871-1.4124-5.4358-1.4124-2.1744 0-3.9983 0.54458-5.449 1.4116-1.0171 0.6076-1.6372 1.7028-1.6372 2.888v2.7866c0 0.8284 0.67157 1.5 1.5 1.5h11.172c0.829 0 1.5-0.6716 1.5-1.5zm-11.172-1.5v-1.2866c0-0.1304 0.066-0.2469 0.1761-0.3127 1.0027-0.5993 2.3008-0.9869 3.9101-0.9869 1.5845 0 2.885 0.3898 3.9078 0.9943 0.112 0.066 0.178 0.1834 0.178 0.3146v1.2773h-8.172z" transform="translate(16.759 21.414)"/>
 </g>
</svg>
