<?xml version="1.0" encoding="UTF-8" standalone="no"?>
<svg xmlns="http://www.w3.org/2000/svg" height="30px" width="30px" version="1.1" xmlns:xlink="http://www.w3.org/1999/xlink" viewBox="0 0 30 30">
 <desc>Created with Lunacy</desc>
 <g id="users">
  <path id="Path" fill="#5630FF" d="m3 5.9531c0-0.5147 0.2971-0.9747 0.7596-1.1801 2.4147-1.0708 5.677-1.773 9.8434-1.773 2.315 0 4.379 0.2162 6.203 0.6064 0.81 0.1734 1.607-0.3428 1.781-1.1529 0.173-0.8101-0.343-1.6073-1.153-1.7807-2.032-0.4346-4.306-0.6728-6.831-0.6728-4.5887 0-8.2649 0.79128-11.06 2.0309-1.5506 0.6885-2.543 2.2252-2.543 3.9222v4.8569c0 0.829 0.67157 1.5 1.5 1.5h13.034c0.829 0 1.5-0.671 1.5-1.5 0-0.8281-0.671-1.4997-1.5-1.4997h-11.534v-3.3572z" transform="translate(-5.0981e-13 17.69)"/>
  <path id="Path" fill="#5630FF" d="m0 8.0172c0-4.4278 3.5894-8.0172 8.0172-8.0172s8.0168 3.5894 8.0168 8.0172c0 4.5518-3.672 8.9488-8.0168 8.9488-4.3452 0-8.0172-4.397-8.0172-8.9488zm3 0c0 3.0028 2.4604 5.9488 5.0172 5.9488s5.0168-2.946 5.0168-5.9488c0-2.7709-2.246-5.0172-5.0168-5.0172-2.7709 0-5.0172 2.2463-5.0172 5.0172z" transform="translate(5.5862 -3.5527e-15)"/>
  <path id="Path" fill="#9D86FF" d="m2.5607 4.1635c-0.5858-0.5858-1.5356-0.5858-2.1214 0-0.58575 0.5858-0.58575 1.5355 0.00004 2.1213l2.7931 2.7931c0.5858 0.5858 1.5356 0.5858 2.1214 0l6.5172-6.5172c0.586-0.5858 0.586-1.5356 0-2.1214-0.586-0.58575-1.535-0.58575-2.1213 0.00004l-5.4566 5.4566-1.7324-1.7324z" transform="translate(17.69 20.483)"/>
 </g>
</svg>
